<svg preserveAspectRatio="none" overflow="visible" style="display: block;" width="23" height="23" viewBox="0 0 23 23" fill="none" xmlns="http://www.w3.org/2000/svg">
<g id="flask-conical">
<path id="Vector" d="M13.4178 1.9159V7.66636C13.4177 7.98789 13.4984 8.30429 13.6526 8.58643L18.933 18.2472C19.0927 18.5391 19.1737 18.8676 19.1679 19.2004C19.1622 19.5331 19.0699 19.8586 18.9002 20.1449C18.7305 20.4311 18.4892 20.6682 18.2 20.8329C17.9109 20.9976 17.5839 21.0842 17.2511 21.0841H5.7512C5.41844 21.0842 5.0914 20.9976 4.80225 20.8329C4.5131 20.6682 4.2718 20.4311 4.1021 20.1449C3.93239 19.8586 3.84013 19.5331 3.83439 19.2004C3.82864 18.8676 3.90961 18.5391 4.06933 18.2472L9.34971 8.58643C9.50389 8.30429 9.58463 7.98789 9.5845 7.66636V1.9159M6.18499 14.3752H16.8167M8.14657 1.9159H14.8548" stroke="#031F50" stroke-linecap="round"/>
</g>
</svg>
