<svg preserveAspectRatio="none" overflow="visible" style="display: block;" width="19" height="19" viewBox="0 0 19 19" fill="none" xmlns="http://www.w3.org/2000/svg">
<g id="pill">
<path id="Vector" d="M6.72887 6.72887L12.2711 12.2711M8.31238 16.2299L16.2299 8.31238C16.5998 7.94981 16.8943 7.5175 17.0961 7.04045C17.298 6.56339 17.4032 6.05105 17.4058 5.53305C17.4085 5.01506 17.3084 4.50168 17.1113 4.02261C16.9143 3.54354 16.6243 3.10828 16.258 2.742C15.8917 2.37571 15.4565 2.08567 14.9774 1.88865C14.4983 1.69163 13.9849 1.59153 13.4669 1.59415C12.9489 1.59677 12.4366 1.70204 11.9596 1.90389C11.4825 2.10575 11.0502 2.40017 10.6876 2.77013L2.77013 10.6876C2.40017 11.0502 2.10575 11.4825 1.90389 11.9596C1.70204 12.4366 1.59677 12.9489 1.59415 13.4669C1.59153 13.9849 1.69163 14.4983 1.88865 14.9774C2.08567 15.4565 2.37571 15.8917 2.742 16.258C3.10828 16.6243 3.54354 16.9143 4.02261 17.1113C4.50168 17.3084 5.01506 17.4085 5.53305 17.4058C6.05105 17.4032 6.56339 17.298 7.04045 17.0961C7.5175 16.8943 7.94981 16.5998 8.31238 16.2299Z" stroke="#031F50" stroke-linecap="round"/>
</g>
</svg>
