<svg preserveAspectRatio="none" overflow="visible" style="display: block;" width="19" height="19" viewBox="0 0 19 19" fill="none" xmlns="http://www.w3.org/2000/svg">
<g id="cloud-upload">
<path id="Vector" d="M9.5004 10.2915V16.625M12.6669 13.4582L9.5004 10.2915L6.33391 13.4582M3.16769 11.7951C2.57955 11.1942 2.13587 10.4672 1.87025 9.66937C1.60464 8.87153 1.52405 8.02369 1.63461 7.19009C1.74516 6.35648 2.04395 5.55897 2.50835 4.85795C2.97274 4.15694 3.59057 3.57081 4.31502 3.14396C5.03947 2.71711 5.85155 2.46073 6.68975 2.39425C7.52795 2.32777 8.37029 2.45292 9.15296 2.76023C9.93564 3.06754 10.6381 3.54895 11.2072 4.168C11.7763 4.78704 12.197 5.52748 12.4376 6.33324H13.8546C14.6189 6.33315 15.363 6.57892 15.9769 7.03423C16.5909 7.48955 17.0421 8.13027 17.2639 8.86174C17.4858 9.59322 17.4665 10.3767 17.209 11.0963C16.9514 11.816 16.4692 12.4338 15.8336 12.8583" stroke="#031F50" stroke-width="1.5" stroke-linecap="round"/>
</g>
</svg>
