<svg preserveAspectRatio="none" overflow="visible" style="display: block;" width="15" height="15" viewBox="0 0 15 15" fill="none" xmlns="http://www.w3.org/2000/svg">
<g id="pencil" clip-path="url(#clip0_0_6)">
<path id="Vector" d="M9.37522 3.12447L11.8754 5.62442M13.2343 4.25719C13.5648 3.92683 13.7504 3.47874 13.7505 3.01149C13.7506 2.54424 13.565 2.0961 13.2346 1.76567C12.9042 1.43523 12.4561 1.24956 11.9888 1.2495C11.5215 1.24944 11.0733 1.435 10.7428 1.76535L2.40081 10.1083C2.25569 10.253 2.14836 10.4312 2.08828 10.6271L1.26259 13.347C1.24643 13.4011 1.24521 13.4585 1.25905 13.5132C1.2729 13.5679 1.30129 13.6178 1.34121 13.6577C1.38114 13.6975 1.43111 13.7258 1.48583 13.7396C1.54055 13.7533 1.59796 13.752 1.652 13.7358L4.37286 12.9108C4.56861 12.8513 4.74675 12.7446 4.89166 12.6002L13.2343 4.25719Z" stroke="#031F50" stroke-linecap="round"/>
</g>
<defs>
<clipPath id="clip0_0_6">
<rect width="15" height="15" fill="white"/>
</clipPath>
</defs>
</svg>
