<svg preserveAspectRatio="none" overflow="visible" style="display: block;" width="19" height="19" viewBox="0 0 19 19" fill="none" xmlns="http://www.w3.org/2000/svg">
<g id="phone">
<path id="Vector" d="M11.4727 13.1653C11.2982 13.2089 11.114 13.1917 10.9505 13.1166C8.75136 12.0373 6.97175 10.26 5.88971 8.06222C5.80957 7.89784 5.78881 7.71078 5.83096 7.53283C5.8731 7.35488 5.97555 7.197 6.1209 7.08602L6.49143 6.80812C6.68809 6.66062 6.8477 6.46937 6.95764 6.2495C7.06758 6.02962 7.12481 5.78717 7.12481 5.54135V3.16616C7.12481 2.7462 6.95798 2.34344 6.66103 2.04648C6.36407 1.74953 5.96131 1.5827 5.54135 1.5827H3.16616C2.7462 1.5827 2.34344 1.74953 2.04648 2.04648C1.74953 2.34344 1.5827 2.7462 1.5827 3.16616C1.5827 6.9458 3.08416 10.5706 5.75676 13.2432C8.42937 15.9158 12.0542 17.4173 15.8338 17.4173C16.2538 17.4173 16.6566 17.2505 16.9535 16.9535C17.2505 16.6566 17.4173 16.2538 17.4173 15.8338V13.4587C17.4173 13.0387 17.2505 12.6359 16.9535 12.339C16.6566 12.042 16.2538 11.8752 15.8338 11.8752H13.4587C13.2128 11.8752 12.9704 11.9324 12.7505 12.0424C12.5306 12.1523 12.3394 12.3119 12.1919 12.5086L11.9108 12.8767C11.8018 13.0199 11.6473 13.1217 11.4727 13.1653Z" stroke="#031F50" stroke-linecap="round"/>
</g>
</svg>
